<svg xmlns="http://www.w3.org/2000/svg" xmlns:xlink="http://www.w3.org/1999/xlink" width="160.654" height="36.382" viewBox="0 0 160.654 36.382">
  <defs>
    <linearGradient id="linear-gradient" x1="-674.439" y1="-474.336" x2="1081.86" y2="760.806" gradientUnits="objectBoundingBox">
      <stop offset="0" stop-color="#29abe2"/>
      <stop offset="1" stop-color="#ed1e79"/>
    </linearGradient>
  </defs>
  <g id="Group_15227" data-name="Group 15227" transform="translate(-229.651 -240.689)">
    <g id="Group_15214" data-name="Group 15214" transform="translate(326.345 269.811)">
      <g id="Group_15209" data-name="Group 15209">
        <path id="Path_48107" data-name="Path 48107" d="M575.552,341.853l-1.774,4.861-1.746-4.861h-1.494l-1.733,4.861-1.747-4.861h-1.507l2.633,7.257h1.268l1.846-5.129,1.86,5.129h1.255l2.649-7.257Z" transform="translate(-565.551 -341.853)" fill="#90218a"/>
      </g>
      <g id="Group_15210" data-name="Group 15210" transform="translate(12.991)">
        <path id="Path_48108" data-name="Path 48108" d="M617.514,341.853h-4.791a2.11,2.11,0,0,0-2.042,2.241v5.017h1.408v-5.017c0-.492.226-.831.634-.831h4.791c.4,0,.648.339.648.831v1.155h-5.017v1.408h5.017v2.453h1.41v-5.017a2.131,2.131,0,0,0-2.058-2.24Z" transform="translate(-610.681 -341.853)" fill="#90218a"/>
      </g>
      <g id="Group_15211" data-name="Group 15211" transform="translate(24.137)">
        <path id="Path_48109" data-name="Path 48109" d="M653.372,345.488l3.593-3.635h-1.959l-3.563,3.635,3.8,3.622H657.2Zm-3.974-3.635v7.257h1.411v-7.257Z" transform="translate(-649.398 -341.853)" fill="#90218a"/>
      </g>
      <g id="Group_15212" data-name="Group 15212" transform="translate(33.705)">
        <path id="Path_48110" data-name="Path 48110" d="M685.1,344.771v1.408h4.874v-1.408Zm5.269-1.508v-1.41h-7.736v7.257h7.736V347.7h-6.325v-4.437Z" transform="translate(-682.636 -341.853)" fill="#90218a"/>
      </g>
      <g id="Group_15213" data-name="Group 15213" transform="translate(43.697)">
        <path id="Path_48111" data-name="Path 48111" d="M725.533,345.432a1.881,1.881,0,0,0,.747-1.578,1.94,1.94,0,0,0-2.029-2h-6.9v7.257h7.029a1.958,1.958,0,0,0,2.042-2A1.843,1.843,0,0,0,725.533,345.432Zm-1.156,2.268h-5.621v-4.437h5.495c.366,0,.618.266.618.774s-.253.733-.618.733h-4.439v1.408h4.565c.381,0,.634.239.634.76S724.759,347.7,724.377,347.7Z" transform="translate(-717.348 -341.853)" fill="#90218a"/>
      </g>
    </g>
    <g id="Group_15219" data-name="Group 15219" transform="translate(305.859 240.795)">
      <g id="Group_15215" data-name="Group 15215" transform="translate(0 11.403)">
        <path id="Path_48112" data-name="Path 48112" d="M504.188,295.8v5.921h6.043V295.8Zm16.724-6.912a1.661,1.661,0,0,1-.941-3.031v-5.186h-6.046v7.388H500.43v-7.388h-6.043v13.617H521.71v-5.606a1.647,1.647,0,0,1-.8.2Z" transform="translate(-494.387 -280.668)" fill="#11044c"/>
      </g>
      <g id="Group_15216" data-name="Group 15216" transform="translate(25.583 8.259)">
        <path id="Path_48113" data-name="Path 48113" d="M591.2,272.77v-3.022h-6.167v8.259a1.645,1.645,0,0,1,.632.647h24.509a1.662,1.662,0,1,1,.007,1.6H585.656a1.661,1.661,0,0,1-2.4.564v5.693h35.6V272.77Z" transform="translate(-583.26 -269.748)" fill="#11044c"/>
      </g>
      <g id="Group_15217" data-name="Group 15217" transform="translate(63.059)">
        <path id="Path_48114" data-name="Path 48114" d="M713.444,241.057v25.035h6.043V241.057Z" transform="translate(-713.444 -241.057)" fill="#11044c"/>
      </g>
      <g id="Group_15218" data-name="Group 15218" transform="translate(70.797 11.556)">
        <path id="Path_48115" data-name="Path 48115" d="M753.957,294.77V281.2H740.325l.016.122V294.7h5.919v-5.17a1.663,1.663,0,1,1,1.58,0v12.526h6.134v-3.4Z" transform="translate(-740.325 -281.201)" fill="#11044c"/>
      </g>
    </g>
    <g id="Group_15221" data-name="Group 15221" transform="translate(229.651 240.689)">
      <g id="Group_15220" data-name="Group 15220">
        <path id="Path_48116" data-name="Path 48116" d="M260.194,269.826l-5.35-8.465-.129-.2-6.567-10.317-2.913-4.579h-5.021a1.661,1.661,0,1,1,0-1.579h4.015l-2.541-3.994H229.651l6.461,10.152,2.044,3.211h5.224a1.662,1.662,0,0,1,3.125.79,1.635,1.635,0,0,1-.214.815l7.332,11.6a1.662,1.662,0,1,1-1.336.844l-7.332-11.6a.992.992,0,0,1-.113.007,1.662,1.662,0,0,1-1.462-.873h-4.22l13.355,20.984H256.7l3.475-5.2A1.663,1.663,0,0,1,260.194,269.826Z" transform="translate(-229.651 -240.689)" fill="#11044c"/>
        <path id="Path_48117" data-name="Path 48117" d="M341.124,315.009l-4.965,7.8H330.2l2.891-4.321a1.629,1.629,0,0,0,1.043-.248,1.662,1.662,0,0,0-1-3.064l-2.071-3.274,4.039-6.345Z" transform="translate(-301.258 -286.884)" fill="#11044c"/>
      </g>
    </g>
    <g id="Group_15223" data-name="Group 15223" transform="translate(255.995 240.689)">
      <g id="Group_15222" data-name="Group 15222">
        <path id="Path_48118" data-name="Path 48118" d="M377.586,281.437l2.229,3.5-2.4,3.773-4.371-7.228-.029-.05Z" transform="translate(-358.089 -269.707)" fill="#29abe2"/>
        <path id="Path_48119" data-name="Path 48119" d="M329.421,246.177l-2.561,3.457-5.693-8.945H346.3l-2.1,3.132a1.654,1.654,0,0,0-1.537.729,1.52,1.52,0,0,0-.081.133h-10.2a1.663,1.663,0,0,0-3.126.79,1.634,1.634,0,0,0,.165.7Z" transform="translate(-321.166 -240.689)" fill="#29abe2"/>
        <path id="Path_48120" data-name="Path 48120" d="M349.353,251.629a1.663,1.663,0,0,0,1.663,1.663.509.509,0,0,0,.081,0l4.775,7.9-2.667,4.19-6.018-9.451-3.092-4.861,2.925-3.945a1.58,1.58,0,0,0,.235.018,1.662,1.662,0,0,0,1.462-.873h10.2a1.663,1.663,0,1,0,2.934-1.566l2.683-4.008h4.384l-6.459,10.15h-9.976a1.662,1.662,0,0,0-3.126.79Z" transform="translate(-337.495 -240.689)" fill="#29abe2"/>
      </g>
    </g>
    <g id="Group_15225" data-name="Group 15225" transform="translate(269.128 240.689)">
      <g id="Group_15224" data-name="Group 15224">
        <path id="Path_48121" data-name="Path 48121" d="M394.148,260.051a1.655,1.655,0,0,1-1.46.873.967.967,0,0,1-.142-.007l-2.43,3.707a1.665,1.665,0,0,1-2.929,1.582h-5l-4.515,7.1-6.018,9.457-4.866,7.641h5.227l10.773-16.929a1.663,1.663,0,1,1,1.331.848L373.888,290.4h4.937l4.865-7.641,11.538-18.134,2.913-4.579Z" transform="translate(-366.789 -254.477)" fill="#90218a"/>
        <path id="Path_48122" data-name="Path 48122" d="M442.275,240.689l-2.541,3.994h-5a1.662,1.662,0,1,0-2.922,1.582l-2.432,3.705a1.665,1.665,0,0,0-1.532.745,1.425,1.425,0,0,0-.075.124H423.78l6.459-10.15Z" transform="translate(-407.374 -240.689)" fill="#90218a"/>
      </g>
    </g>
    <g id="Group_15226" data-name="Group 15226" transform="translate(270.92 252.419)">
      <path id="Path_48123" data-name="Path 48123" d="M373.073,281.437a.3.3,0,0,1-.029.049l-.029-.049Z" transform="translate(-373.014 -281.437)" fill="url(#linear-gradient)"/>
    </g>
  </g>
</svg>
